<svg width="21" height="21" viewBox="0 0 21 21" fill="none" xmlns="http://www.w3.org/2000/svg">
<path d="M16.6667 16.6667C15.5104 16.6667 14.5833 17.5938 14.5833 18.75C14.5833 19.3025 14.8028 19.8324 15.1935 20.2231C15.5842 20.6138 16.1141 20.8333 16.6667 20.8333C17.2192 20.8333 17.7491 20.6138 18.1398 20.2231C18.5305 19.8324 18.75 19.3025 18.75 18.75C18.75 18.1975 18.5305 17.6676 18.1398 17.2769C17.7491 16.8862 17.2192 16.6667 16.6667 16.6667ZM0 0V2.08333H2.08333L5.83333 9.98958L4.41667 12.5417C4.26042 12.8333 4.16667 13.1771 4.16667 13.5417C4.16667 14.0942 4.38616 14.6241 4.77686 15.0148C5.16756 15.4055 5.69747 15.625 6.25 15.625H18.75V13.5417H6.6875C6.61843 13.5417 6.5522 13.5142 6.50336 13.4654C6.45452 13.4166 6.42708 13.3503 6.42708 13.2813C6.42708 13.2292 6.4375 13.1875 6.45833 13.1563L7.39583 11.4583H15.1563C15.9375 11.4583 16.625 11.0208 16.9792 10.3854L20.7083 3.64583C20.7812 3.47917 20.8333 3.30208 20.8333 3.125C20.8333 2.84873 20.7236 2.58378 20.5282 2.38843C20.3329 2.19308 20.0679 2.08333 19.7917 2.08333H4.38542L3.40625 0M6.25 16.6667C5.09375 16.6667 4.16667 17.5938 4.16667 18.75C4.16667 19.3025 4.38616 19.8324 4.77686 20.2231C5.16756 20.6138 5.69747 20.8333 6.25 20.8333C6.80254 20.8333 7.33244 20.6138 7.72314 20.2231C8.11384 19.8324 8.33333 19.3025 8.33333 18.75C8.33333 18.1975 8.11384 17.6676 7.72314 17.2769C7.33244 16.8862 6.80254 16.6667 6.25 16.6667Z" fill="white"/>
</svg>
