<svg width="19" height="19" viewBox="0 0 19 19" fill="none" xmlns="http://www.w3.org/2000/svg">
<path d="M12.5 9.375H14.5833C14.5833 7.99366 14.0346 6.6689 13.0578 5.69215C12.0811 4.7154 10.7563 4.16667 9.375 4.16667V6.25C10.2038 6.25 10.9987 6.57924 11.5847 7.16529C12.1708 7.75134 12.5 8.5462 12.5 9.375ZM16.6667 9.375H18.75C18.75 4.16667 14.5521 0 9.375 0V2.08333C13.3958 2.08333 16.6667 5.34375 16.6667 9.375ZM17.7083 13.0208C16.4062 13.0208 15.1562 12.8125 13.9896 12.4271C13.625 12.3125 13.2187 12.3958 12.9271 12.6875L10.6354 14.9792C7.68066 13.472 5.27799 11.0693 3.77083 8.11458L6.0625 5.82292C6.35417 5.53125 6.4375 5.125 6.32292 4.76042C5.92846 3.56031 5.72802 2.30494 5.72917 1.04167C5.72917 0.765399 5.61942 0.500447 5.42407 0.305097C5.22872 0.109747 4.96377 0 4.6875 0H1.04167C0.765399 0 0.500447 0.109747 0.305097 0.305097C0.109747 0.500447 0 0.765399 0 1.04167C0 5.73821 1.86569 10.2424 5.18665 13.5633C8.50761 16.8843 13.0118 18.75 17.7083 18.75C17.9846 18.75 18.2496 18.6403 18.4449 18.4449C18.6403 18.2496 18.75 17.9846 18.75 17.7083V14.0625C18.75 13.7862 18.6403 13.5213 18.4449 13.3259C18.2496 13.1306 17.9846 13.0208 17.7083 13.0208Z" fill="white"/>
</svg>
