<svg width="17" height="17" viewBox="0 0 17 17" fill="none" xmlns="http://www.w3.org/2000/svg">
<path d="M8.33333 0C9.4384 0 10.4982 0.438987 11.2796 1.22039C12.061 2.00179 12.5 3.0616 12.5 4.16667C12.5 5.27174 12.061 6.33154 11.2796 7.11295C10.4982 7.89435 9.4384 8.33333 8.33333 8.33333C7.22826 8.33333 6.16846 7.89435 5.38705 7.11295C4.60565 6.33154 4.16667 5.27174 4.16667 4.16667C4.16667 3.0616 4.60565 2.00179 5.38705 1.22039C6.16846 0.438987 7.22826 0 8.33333 0ZM8.33333 10.4167C12.9375 10.4167 16.6667 12.2812 16.6667 14.5833V16.6667H0V14.5833C0 12.2812 3.72917 10.4167 8.33333 10.4167Z" fill="white"/>
</svg>
