<svg width="25" height="25" viewBox="0 0 25 25" fill="none" xmlns="http://www.w3.org/2000/svg">
<path d="M20 20C18.6125 20 17.5 21.1125 17.5 22.5C17.5 23.163 17.7634 23.7989 18.2322 24.2678C18.7011 24.7366 19.337 25 20 25C20.663 25 21.2989 24.7366 21.7678 24.2678C22.2366 23.7989 22.5 23.163 22.5 22.5C22.5 21.837 22.2366 21.2011 21.7678 20.7322C21.2989 20.2634 20.663 20 20 20ZM0 0V2.5H2.5L7 11.9875L5.3 15.05C5.1125 15.4 5 15.8125 5 16.25C5 16.913 5.26339 17.5489 5.73223 18.0178C6.20107 18.4866 6.83696 18.75 7.5 18.75H22.5V16.25H8.025C7.94212 16.25 7.86263 16.2171 7.80403 16.1585C7.74542 16.0999 7.7125 16.0204 7.7125 15.9375C7.7125 15.875 7.725 15.825 7.75 15.7875L8.875 13.75H18.1875C19.125 13.75 19.95 13.225 20.375 12.4625L24.85 4.375C24.9375 4.175 25 3.9625 25 3.75C25 3.41848 24.8683 3.10054 24.6339 2.86612C24.3995 2.6317 24.0815 2.5 23.75 2.5H5.2625L4.0875 0M7.5 20C6.1125 20 5 21.1125 5 22.5C5 23.163 5.26339 23.7989 5.73223 24.2678C6.20107 24.7366 6.83696 25 7.5 25C8.16304 25 8.79893 24.7366 9.26777 24.2678C9.73661 23.7989 10 23.163 10 22.5C10 21.837 9.73661 21.2011 9.26777 20.7322C8.79893 20.2634 8.16304 20 7.5 20Z" fill="#22376E"/>
</svg>
