<svg width="15" height="15" viewBox="0 0 15 15" fill="none" xmlns="http://www.w3.org/2000/svg">
<path d="M10 7.5H11.6667C11.6667 6.39493 11.2277 5.33512 10.4463 4.55372C9.66488 3.77232 8.60507 3.33333 7.5 3.33333V5C8.16304 5 8.79893 5.26339 9.26777 5.73223C9.73661 6.20107 10 6.83696 10 7.5ZM13.3333 7.5H15C15 3.33333 11.6417 0 7.5 0V1.66667C10.7167 1.66667 13.3333 4.275 13.3333 7.5ZM14.1667 10.4167C13.125 10.4167 12.125 10.25 11.1917 9.94167C10.9 9.85 10.575 9.91667 10.3417 10.15L8.50833 11.9833C6.14453 10.7776 4.2224 8.85547 3.01667 6.49167L4.85 4.65833C5.08333 4.425 5.15 4.1 5.05833 3.80833C4.74277 2.84824 4.58242 1.84395 4.58333 0.833333C4.58333 0.61232 4.49554 0.400358 4.33926 0.244078C4.18298 0.0877973 3.97101 0 3.75 0H0.833333C0.61232 0 0.400358 0.0877973 0.244078 0.244078C0.0877973 0.400358 0 0.61232 0 0.833333C0 4.59057 1.49256 8.19391 4.14932 10.8507C6.80609 13.5074 10.4094 15 14.1667 15C14.3877 15 14.5996 14.9122 14.7559 14.7559C14.9122 14.5996 15 14.3877 15 14.1667V11.25C15 11.029 14.9122 10.817 14.7559 10.6607C14.5996 10.5045 14.3877 10.4167 14.1667 10.4167Z" fill="#8294C2"/>
</svg>
