<svg width="29" height="29" viewBox="0 0 29 29" fill="none" xmlns="http://www.w3.org/2000/svg">
<path d="M29 14.5C29 22.5081 22.5081 29 14.5 29C6.49187 29 0 22.5081 0 14.5C0 6.49187 6.49187 0 14.5 0C22.5081 0 29 6.49187 29 14.5Z" fill="white"/>
<path d="M14.5 0C6.496 0 0 6.496 0 14.5C0 22.504 6.496 29 14.5 29C22.504 29 29 22.504 29 14.5C29 6.496 22.504 0 14.5 0ZM21.228 9.86C21.0105 12.151 20.068 17.719 19.5895 20.2855C19.3865 21.373 18.9805 21.7355 18.6035 21.779C17.7625 21.8515 17.1245 21.228 16.3125 20.6915C15.0365 19.8505 14.3115 19.3285 13.079 18.5165C11.6435 17.574 12.5715 17.052 13.398 16.211C13.6155 15.9935 17.3275 12.615 17.4 12.3105C17.4101 12.2644 17.4087 12.2165 17.3961 12.171C17.3835 12.1255 17.3599 12.0838 17.3275 12.0495C17.2405 11.977 17.1245 12.006 17.023 12.0205C16.8925 12.0495 14.8625 13.398 10.904 16.066C10.324 16.4575 9.802 16.6605 9.338 16.646C8.816 16.6315 7.83 16.356 7.0905 16.1095C6.177 15.8195 5.4665 15.66 5.5245 15.1525C5.5535 14.8915 5.916 14.6305 6.5975 14.355C10.8315 12.5135 13.6445 11.2955 15.051 10.7155C19.082 9.0335 19.9085 8.7435 20.4595 8.7435C20.5755 8.7435 20.851 8.7725 21.025 8.9175C21.17 9.0335 21.2135 9.193 21.228 9.309C21.2135 9.396 21.2425 9.657 21.228 9.86Z" fill="#27A7E7"/>
</svg>
