<svg width="29" height="29" viewBox="0 0 29 29" fill="none" xmlns="http://www.w3.org/2000/svg">
<path d="M18.9559 0H10.0601C1.9314 0 0 1.93285 0 10.0442V18.9414C0 27.0672 1.91835 29 10.0442 29H18.9414C27.0672 29 29 27.0816 29 18.9559V10.0601C29 1.9314 27.0816 0 18.9559 0ZM23.4117 20.6915H21.2962C20.4958 20.6915 20.2551 20.0434 18.8196 18.6079C17.5668 17.4 17.0375 17.2492 16.72 17.2492C16.2821 17.2492 16.1617 17.3696 16.1617 17.9742V19.8766C16.1617 20.3913 15.995 20.693 14.6508 20.693C13.3465 20.6044 12.0819 20.2076 10.9607 19.5354C9.83953 18.8631 8.8938 17.9345 8.2012 16.8258C6.55741 14.782 5.41434 12.3822 4.8633 9.81795C4.8633 9.5004 4.98365 9.2133 5.5883 9.2133H7.70385C8.2476 9.2133 8.44335 9.45545 8.65505 10.0137C9.68165 13.0355 11.4333 15.6629 12.1438 15.6629C12.4164 15.6629 12.5353 15.5426 12.5353 14.8625V11.7508C12.4454 10.3313 11.6913 10.2109 11.6913 9.6976C11.701 9.56221 11.7631 9.43592 11.8643 9.34551C11.9656 9.2551 12.098 9.20768 12.2337 9.2133H15.5571C16.0109 9.2133 16.1617 9.4395 16.1617 9.98325V14.1825C16.1617 14.6363 16.3575 14.7871 16.4937 14.7871C16.7663 14.7871 16.9766 14.6363 17.4754 14.1375C18.5467 12.831 19.4221 11.3754 20.0738 9.8165C20.1408 9.62953 20.267 9.46949 20.4331 9.36065C20.5993 9.2518 20.7964 9.20007 20.9946 9.2133H23.1101C23.7437 9.2133 23.8786 9.53085 23.7438 9.98325C22.9746 11.7065 22.0227 13.3423 20.9046 14.8625C20.677 15.2105 20.5856 15.3918 20.9046 15.7992C21.1149 16.1168 21.8559 16.7359 22.3547 17.3246C23.0792 18.0479 23.6811 18.8844 24.1367 19.8012C24.318 20.3899 24.0149 20.6915 23.4117 20.6915Z" fill="#0079FF"/>
<path d="M7.70385 9.2133C8.2476 9.2133 8.44335 9.45545 8.65505 10.0137C9.68165 13.0355 11.4333 15.6629 12.1438 15.6629C12.4164 15.6629 12.5353 15.5426 12.5353 14.8625V11.7508C12.4454 10.3313 11.6913 10.2109 11.6913 9.6976C11.701 9.56221 11.7631 9.43592 11.8643 9.34551C11.9656 9.2551 12.098 9.20768 12.2337 9.2133H15.5571C16.0109 9.2133 16.1617 9.4395 16.1617 9.98325V14.1825C16.1617 14.6363 16.3575 14.7871 16.4937 14.7871C16.7663 14.7871 16.9766 14.6363 17.4754 14.1375C18.5467 12.831 19.4221 11.3754 20.0738 9.8165C20.1408 9.62953 20.267 9.46949 20.4331 9.36065C20.5993 9.2518 20.7964 9.20007 20.9946 9.2133H23.1101C23.7437 9.2133 23.8786 9.53085 23.7438 9.98325C22.9746 11.7065 22.0227 13.3423 20.9046 14.8625C20.677 15.2105 20.5856 15.3918 20.9046 15.7992C21.1149 16.1168 21.8559 16.7359 22.3547 17.3246C23.0792 18.0479 23.6811 18.8844 24.1367 19.8012C24.318 20.3899 24.0149 20.6915 23.4117 20.6915H21.2962C20.4958 20.6915 20.2551 20.0434 18.8196 18.6079C17.5668 17.4 17.0375 17.2492 16.72 17.2492C16.2821 17.2492 16.1617 17.3696 16.1617 17.9742V19.8766C16.1617 20.3913 15.995 20.693 14.6508 20.693C13.3465 20.6044 12.0819 20.2076 10.9607 19.5354C9.83953 18.8631 8.8938 17.9345 8.2012 16.8258C6.55741 14.782 5.41434 12.3822 4.8633 9.81795C4.8633 9.5004 4.98365 9.2133 5.5883 9.2133H7.70385Z" fill="white"/>
</svg>
