<svg width="30" height="30" viewBox="0 0 30 30" fill="none" xmlns="http://www.w3.org/2000/svg">
<path d="M14.5834 0C22.6377 0 29.1667 6.52896 29.1667 14.5833C29.1667 22.6377 22.6377 29.1667 14.5834 29.1667C12.0061 29.1711 9.47421 28.4891 7.24794 27.1906L0.00585587 29.1667L1.97752 21.9217C0.678087 19.6947 -0.00449404 17.1617 2.22668e-05 14.5833C2.22668e-05 6.52896 6.52898 0 14.5834 0ZM9.61336 7.72917L9.32169 7.74083C9.13311 7.75383 8.94886 7.80336 8.77919 7.88667C8.62107 7.97637 8.47668 8.08835 8.35044 8.21917C8.17544 8.38396 8.07627 8.52688 7.96981 8.66542C7.43041 9.36673 7.13998 10.2277 7.1444 11.1125C7.14731 11.8271 7.33398 12.5227 7.62565 13.1731C8.22211 14.4885 9.20356 15.8813 10.4986 17.1719C10.8106 17.4825 11.1169 17.7946 11.4465 18.0848C13.0557 19.5014 14.9731 20.5231 17.0465 21.0685L17.8748 21.1954C18.1446 21.21 18.4144 21.1896 18.6856 21.1765C19.1103 21.1541 19.5249 21.0391 19.9004 20.8396C20.0913 20.7409 20.2776 20.6339 20.459 20.5187C20.459 20.5187 20.5207 20.4769 20.6413 20.3875C20.8382 20.2417 20.9592 20.1381 21.1225 19.9675C21.245 19.8411 21.3471 19.6943 21.4288 19.5271C21.5425 19.2894 21.6563 18.8358 21.7029 18.4581C21.7379 18.1694 21.7277 18.0119 21.7234 17.9142C21.7175 17.7581 21.5877 17.5963 21.4463 17.5277L20.5975 17.1471C20.5975 17.1471 19.3288 16.5944 18.5529 16.2415C18.4717 16.2061 18.3848 16.1858 18.2963 16.1817C18.1965 16.1712 18.0956 16.1824 18.0005 16.2143C17.9054 16.2463 17.8183 16.2983 17.745 16.3669C17.7377 16.364 17.64 16.4471 16.5856 17.7246C16.5251 17.8059 16.4418 17.8674 16.3462 17.9011C16.2506 17.9349 16.1471 17.9394 16.049 17.9142C15.9539 17.8888 15.8608 17.8567 15.7704 17.8179C15.5896 17.7421 15.5269 17.7129 15.4029 17.6604C14.5657 17.2957 13.7907 16.8022 13.1061 16.1977C12.9223 16.0373 12.7517 15.8623 12.5767 15.6931C12.003 15.1436 11.503 14.5221 11.0892 13.844L11.0031 13.7054C10.9423 13.6118 10.8924 13.5115 10.8544 13.4065C10.799 13.1921 10.9434 13.02 10.9434 13.02C10.9434 13.02 11.2977 12.6321 11.4625 12.4221C11.6229 12.2179 11.7586 12.0196 11.8461 11.8781C12.0181 11.601 12.0721 11.3167 11.9817 11.0965C11.5734 10.099 11.1514 9.10681 10.7159 8.12C10.6298 7.92458 10.3746 7.78458 10.1427 7.75688C10.064 7.74715 9.98523 7.73938 9.90648 7.73354C9.71067 7.72231 9.51432 7.72426 9.31877 7.73938L9.61336 7.72917Z" fill="#2EDA50"/>
<path d="M9.90648 7.73354C9.98523 7.73938 10.064 7.74715 10.1427 7.75688C10.3746 7.78458 10.6298 7.92458 10.7159 8.12C11.1514 9.10681 11.5734 10.099 11.9817 11.0965C12.0721 11.3167 12.0181 11.601 11.8461 11.8781C11.7586 12.0196 11.6229 12.2179 11.4625 12.4221C11.2977 12.6321 10.9434 13.02 10.9434 13.02C10.9389 13.0254 10.7999 13.1955 10.8544 13.4065C10.8924 13.5115 10.9423 13.6118 11.0031 13.7054L11.0892 13.844C11.503 14.5221 12.003 15.1436 12.5767 15.6931C12.7517 15.8623 12.9223 16.0373 13.1061 16.1977C13.7907 16.8022 14.5657 17.2957 15.4029 17.6604C15.5269 17.7129 15.5896 17.7421 15.7704 17.8179C15.8608 17.8567 15.9539 17.8888 16.049 17.9142C16.1471 17.9394 16.2506 17.9349 16.3462 17.9011C16.4418 17.8674 16.5251 17.8059 16.5856 17.7246C17.64 16.4471 17.7377 16.364 17.745 16.3669C17.8183 16.2983 17.9054 16.2463 18.0005 16.2143C18.0956 16.1824 18.1965 16.1712 18.2963 16.1817C18.3848 16.1858 18.4717 16.2061 18.5529 16.2415C19.3288 16.5944 20.5975 17.1471 20.5975 17.1471L21.4463 17.5277C21.5877 17.5963 21.7175 17.7581 21.7234 17.9142C21.7277 18.0119 21.7379 18.1694 21.7029 18.4581C21.6563 18.8358 21.5425 19.2894 21.4288 19.5271C21.3471 19.6943 21.245 19.8411 21.1225 19.9675C20.9592 20.1381 20.8382 20.2417 20.6413 20.3875C20.5207 20.4769 20.459 20.5187 20.459 20.5187C20.2776 20.6339 20.0913 20.7409 19.9004 20.8396C19.5249 21.0391 19.1103 21.1541 18.6856 21.1765C18.4144 21.1896 18.1446 21.21 17.8748 21.1954L17.0465 21.0685C14.9731 20.5231 13.0557 19.5014 11.4465 18.0848C11.1169 17.7946 10.8106 17.4825 10.4986 17.1719C9.20356 15.8813 8.22211 14.4885 7.62565 13.1731C7.33398 12.5227 7.14731 11.8271 7.1444 11.1125C7.13998 10.2277 7.43041 9.36673 7.96981 8.66542C8.07627 8.52688 8.17544 8.38396 8.35044 8.21917C8.47668 8.08835 8.62107 7.97637 8.77919 7.88667C8.94886 7.80336 9.13311 7.75383 9.32169 7.74083L9.61336 7.72917L9.31877 7.73938C9.51432 7.72426 9.71067 7.72231 9.90648 7.73354Z" fill="white"/>
</svg>
