<svg width="173" height="47" viewBox="0 0 173 47" fill="none" xmlns="http://www.w3.org/2000/svg">
<path d="M60.361 31.5357C58.6192 30.4086 57.2742 28.8837 56.3261 26.9611C55.3781 25.0385 54.915 22.8948 54.915 20.5302C54.915 18.0993 55.4222 15.8452 56.4584 13.7678C57.4947 11.7126 59.0381 10.2983 60.824 9.10489C62.5879 7.91153 65.366 7.16016 67.4606 7.16016C69.445 7.16016 71.1868 7.44745 72.6861 7.99993C74.1854 8.55241 75.2878 9.28169 76.0154 10.1436C76.4343 10.6739 76.6989 11.359 76.7871 12.2209C76.8753 13.0828 76.9414 14.254 76.9414 15.7568H76.1918C75.7288 13.348 74.8468 11.5579 73.5901 10.4088C72.3333 9.25959 70.6576 8.68501 68.563 8.68501C65.8731 8.68501 62.9407 9.65737 61.287 11.5358C59.6555 13.4364 58.6192 16.3977 58.6192 20.5744C58.6192 22.5412 58.9279 24.3755 59.5673 26.055C60.2067 27.7567 61.1768 28.8837 62.5218 29.9224C63.8667 30.9832 66.5346 31.8008 68.541 31.8008C70.349 31.8008 71.9364 31.3589 73.2814 30.497C74.6263 29.6351 75.839 28.3313 76.9194 26.5854L77.669 27.1379C76.5225 29.3699 75.1114 30.9611 73.4357 31.8892C71.7601 32.8174 69.7536 33.2815 67.4165 33.2815C65.1235 33.2815 62.1028 32.6627 60.361 31.5357Z" fill="#22376E"/>
<path d="M82.9169 12.265C82.2995 10.8286 81.7042 9.8341 81.175 9.30371C80.6238 8.77333 79.8521 8.44184 78.8379 8.35344V7.60207C78.9702 7.60207 79.1466 7.57997 79.3671 7.55787C79.6096 7.53577 79.8521 7.51367 80.0946 7.51367C81.3294 7.51367 82.52 7.82306 83.6665 8.46394C84.813 9.10482 85.7832 10.3645 86.5769 12.2429L92.9489 27.2704L95.1537 22.1655C96.19 19.7567 98.1964 14.9832 101.151 7.88936H102.937L92.2654 32.8836H91.6039L82.9169 12.265Z" fill="#22376E"/>
<path d="M106.64 12.3756C106.64 11.1159 106.662 10.2319 106.64 9.52475C106.618 9.10486 106.574 7.8894 106.574 7.8894H122.295C122.295 8.50818 122.295 9.06067 122.295 9.37005H109.992V19.0716H118.26V20.5744H109.992V31.0273H122.295C122.295 31.7345 122.295 31.8671 122.295 32.5301H106.64V12.3756Z" fill="#22376E"/>
<path d="M134.179 9.39227H125.801C125.801 8.5746 125.801 7.91162 125.801 7.91162H145.909V9.39227H137.531V32.5302H134.179V9.39227Z" fill="#22376E"/>
<path d="M160.703 22.3423L154.376 12.7512C153.736 11.8231 153.185 11.1159 152.744 10.5855C152.303 10.0551 151.774 9.61315 151.156 9.25956C150.539 8.90597 149.834 8.68498 148.974 8.64078V7.8894H152.325C153.56 7.8894 154.618 8.26509 155.456 8.99437C156.294 9.72364 157.11 10.7402 157.903 11.9999L163.305 20.3976L171.088 7.9115H172.764L164.055 22.0771V32.5301H160.703V22.3423Z" fill="#22376E"/>
<path d="M73.9648 37.7014H73.2593V42.2539H70.1284V37.7014H69.4229V42.8506H73.2593H73.9648H74.1412V44.1102H74.7806V42.2539H73.9648V37.7014Z" fill="#22376E"/>
<path d="M79.3226 40.1985C79.4769 40.1543 79.6533 40.088 79.7636 39.9996C80.0722 39.7786 80.2486 39.4471 80.2486 39.0272C80.2486 38.6074 80.0722 38.2759 79.7415 38.0549C79.4108 37.8339 78.9478 37.7234 78.3745 37.7234H76.1035V42.8725H78.4406C79.1241 42.8725 79.6092 42.7399 79.9399 42.4968C80.2707 42.2537 80.425 41.9001 80.425 41.4582C80.425 41.0383 80.2707 40.7068 79.984 40.4637C79.8517 40.3311 79.6092 40.2427 79.3226 40.1985ZM76.787 38.2538H78.3304C78.7273 38.2538 79.036 38.3201 79.2564 38.4748C79.4769 38.6295 79.5651 38.8284 79.5651 39.1156C79.5651 39.4029 79.4549 39.6239 79.2564 39.7786C79.036 39.9333 78.7493 39.9996 78.3304 39.9996H76.787V38.2538ZM79.4108 42.099C79.1903 42.2316 78.8596 42.2979 78.4186 42.2979H76.787V40.5079H78.4847C78.9257 40.5079 79.2344 40.5742 79.4328 40.7289C79.6313 40.8836 79.7415 41.1046 79.7415 41.414C79.7636 41.7234 79.6533 41.9664 79.4108 42.099Z" fill="#22376E"/>
<path d="M85.3646 37.9887C84.9898 37.7677 84.5709 37.6572 84.0858 37.6572C83.6007 37.6572 83.1818 37.7677 82.807 37.9887C82.4322 38.2097 82.1235 38.5191 81.903 38.9169C81.6825 39.3147 81.5723 39.7567 81.5723 40.2649C81.5723 40.7732 81.6825 41.2373 81.925 41.613C82.1455 42.0108 82.4763 42.3202 82.8731 42.5412C83.27 42.7622 83.7551 42.8727 84.2842 42.8727C84.7031 42.8727 85.078 42.8064 85.4087 42.6517C85.7394 42.5191 86.026 42.2981 86.2686 42.0329L85.8717 41.5909C85.6733 41.8119 85.4528 41.9887 85.1662 42.0992C84.9016 42.2097 84.5929 42.276 84.2842 42.276C83.8874 42.276 83.5346 42.1876 83.2259 42.0329C82.9172 41.8561 82.6747 41.6351 82.4983 41.3257C82.344 41.0826 82.2778 40.7953 82.2558 40.4859H86.5552C86.5552 40.4417 86.5552 40.4196 86.5552 40.3754C86.5552 40.3312 86.5552 40.3091 86.5552 40.2649C86.5552 39.7567 86.445 39.2926 86.2245 38.8948C86.0261 38.5191 85.7394 38.2097 85.3646 37.9887ZM82.4763 39.1821C82.6306 38.8948 82.8511 38.6517 83.1377 38.497C83.4243 38.3423 83.733 38.2539 84.0858 38.2539C84.4386 38.2539 84.7693 38.3423 85.0339 38.497C85.2985 38.6517 85.5189 38.8948 85.6733 39.1821C85.8056 39.4252 85.8717 39.6904 85.8938 39.9777H82.2558C82.2999 39.6904 82.344 39.4252 82.4763 39.1821Z" fill="#22376E"/>
<path d="M87.1279 38.3202H89.0902V42.8506H89.7737V38.3202H91.714V37.7014H87.1279V38.3202Z" fill="#22376E"/>
<path d="M96.1894 38.0107C95.7926 37.7897 95.3516 37.6792 94.8445 37.6792C94.3374 37.6792 93.8964 37.7897 93.4995 38.0107C93.1026 38.2317 92.794 38.5411 92.5735 38.9389C92.353 39.3366 92.2207 39.7786 92.2207 40.309C92.2207 40.8173 92.3309 41.2593 92.5735 41.6571C92.794 42.0549 93.1026 42.3642 93.4995 42.5852C93.8964 42.8062 94.3374 42.9167 94.8445 42.9167C95.3516 42.9167 95.7926 42.8062 96.1894 42.5852C96.5863 42.3642 96.895 42.0549 97.1155 41.6571C97.3359 41.2593 97.4462 40.8173 97.4462 40.309C97.4462 39.8007 97.3359 39.3366 97.1155 38.961C96.895 38.5411 96.5863 38.2317 96.1894 38.0107ZM96.5202 41.3256C96.3438 41.635 96.1233 41.856 95.8367 42.0328C95.55 42.2095 95.2193 42.2758 94.8445 42.2758C94.4917 42.2758 94.161 42.1875 93.8743 42.0328C93.5877 41.856 93.3672 41.635 93.1908 41.3256C93.0145 41.0162 92.9483 40.6626 92.9483 40.2648C92.9483 39.867 93.0365 39.5134 93.1908 39.204C93.3452 38.8947 93.5877 38.6737 93.8743 38.4969C94.161 38.3201 94.4917 38.2538 94.8445 38.2538C95.1972 38.2538 95.528 38.3422 95.8146 38.4969C96.1012 38.6737 96.3217 38.8947 96.4981 39.204C96.6745 39.5134 96.7406 39.867 96.7406 40.2648C96.7627 40.6847 96.6745 41.0383 96.5202 41.3256Z" fill="#22376E"/>
<path d="M102.143 40.1542C101.878 40.2647 101.613 40.3752 101.349 40.4194C101.062 40.4857 100.798 40.5299 100.533 40.5299C100.092 40.5299 99.7614 40.4415 99.4968 40.2426C99.2322 40.0437 99.122 39.7564 99.122 39.3586V37.7012H98.4385V39.3807C98.4385 39.9553 98.6149 40.3973 98.9676 40.6625C99.3204 40.9498 99.8055 41.0824 100.401 41.0824C100.709 41.0824 100.996 41.0382 101.305 40.9719C101.591 40.9056 101.878 40.7951 102.143 40.6846V42.8503H102.826V37.7012H102.143V40.1542Z" fill="#22376E"/>
<path d="M108.735 39.9776H105.494V37.7014H104.811V42.8506H105.494V40.5743H108.735V42.8506H109.441V37.7014H108.735V39.9776Z" fill="#22376E"/>
<path d="M113.189 37.6572C112.792 37.6572 112.395 37.7235 112.042 37.834C111.667 37.9666 111.359 38.1213 111.094 38.3423L111.403 38.8727C111.601 38.6959 111.866 38.5412 112.175 38.4307C112.483 38.3202 112.792 38.2539 113.123 38.2539C113.608 38.2539 113.961 38.3644 114.203 38.6075C114.446 38.8506 114.578 39.1821 114.578 39.6241V39.9335H112.946C112.461 39.9335 112.064 39.9997 111.778 40.1323C111.491 40.2649 111.271 40.4417 111.16 40.6627C111.028 40.8837 110.962 41.1268 110.962 41.392C110.962 41.6793 111.028 41.9445 111.182 42.1655C111.337 42.3865 111.557 42.5633 111.822 42.6959C112.108 42.8285 112.439 42.8948 112.814 42.8948C113.299 42.8948 113.718 42.7843 114.027 42.5854C114.269 42.4307 114.446 42.2318 114.578 41.9887V42.8506H115.239V39.6462C115.239 38.9832 115.063 38.4749 114.688 38.1434C114.357 37.834 113.85 37.6572 113.189 37.6572ZM113.938 42.0771C113.652 42.2539 113.321 42.3423 112.924 42.3423C112.505 42.3423 112.197 42.2539 111.976 42.0771C111.756 41.9003 111.623 41.6572 111.623 41.3699C111.623 41.1047 111.712 40.8837 111.91 40.7069C112.108 40.5301 112.439 40.4417 112.946 40.4417H114.556V41.2815C114.446 41.6572 114.225 41.9003 113.938 42.0771Z" fill="#22376E"/>
<path d="M117.312 38.1434C116.915 38.4307 116.717 38.8727 116.717 39.4694C116.717 40.0218 116.893 40.4417 117.268 40.729C117.467 40.8837 117.687 40.9942 117.952 41.0605L116.673 42.8726H117.422L118.635 41.1489C118.701 41.1489 118.745 41.171 118.812 41.171H120.421V42.8726H121.06V37.7235H118.9C118.238 37.7014 117.709 37.8561 117.312 38.1434ZM120.421 38.3202V40.6406H118.856C117.886 40.6406 117.4 40.2649 117.4 39.4915C117.4 39.0716 117.533 38.7843 117.797 38.6075C118.062 38.4307 118.437 38.3423 118.9 38.3423H120.421V38.3202Z" fill="#22376E"/>
<path d="M127.035 38.519C127.322 38.3422 127.653 38.2759 128.028 38.2759C128.336 38.2759 128.623 38.3422 128.888 38.4527C129.152 38.5853 129.373 38.7621 129.549 39.0273L130.078 38.6737C129.88 38.3422 129.593 38.077 129.24 37.9002C128.888 37.7234 128.491 37.635 128.05 37.635C127.543 37.635 127.08 37.7455 126.683 37.9665C126.286 38.1875 125.977 38.4969 125.735 38.8947C125.514 39.2925 125.382 39.7344 125.382 40.2648C125.382 40.7731 125.492 41.2372 125.735 41.6129C125.955 42.0107 126.286 42.3201 126.683 42.541C127.08 42.762 127.543 42.8725 128.05 42.8725C128.491 42.8725 128.888 42.7841 129.24 42.6073C129.593 42.4306 129.88 42.1875 130.078 41.856L129.549 41.5024C129.373 41.7676 129.152 41.9444 128.888 42.077C128.623 42.2096 128.336 42.2538 128.028 42.2538C127.653 42.2538 127.344 42.1654 127.035 42.0107C126.749 41.8339 126.506 41.6129 126.352 41.3035C126.176 40.9941 126.087 40.6405 126.087 40.2427C126.087 39.8449 126.176 39.4913 126.352 39.182C126.528 38.9168 126.749 38.6958 127.035 38.519Z" fill="#22376E"/>
<path d="M131.026 38.3202H132.967V42.8506H133.672V38.3202H135.612V37.7014H131.026V38.3202Z" fill="#22376E"/>
<path d="M139.25 42.0771L137.31 37.7014H136.582L138.875 42.8285L138.655 43.3367C138.5 43.6461 138.346 43.8892 138.169 43.9997C137.993 44.1323 137.817 44.1986 137.574 44.1986C137.376 44.1986 137.221 44.1544 137.067 44.0881C136.913 44.0218 136.78 43.9334 136.648 43.8008L136.317 44.3091C136.472 44.4638 136.67 44.5743 136.891 44.6627C137.111 44.7511 137.332 44.7732 137.574 44.7732C137.817 44.7732 138.037 44.729 138.258 44.6406C138.456 44.5522 138.655 44.4196 138.809 44.2207C138.985 44.0218 139.14 43.7566 139.294 43.4251L141.874 37.6572H141.19L139.25 42.0771Z" fill="#22376E"/>
<path d="M147.166 37.7014H143.373L143.307 39.4252C143.285 39.7787 143.263 40.1323 143.219 40.4859C143.197 40.8395 143.131 41.1268 143.065 41.392C142.998 41.6572 142.888 41.8782 142.756 42.0329C142.624 42.1876 142.469 42.2539 142.249 42.2539H142.028V44.1102H142.69V42.8726H147.298V44.1102H147.959V42.2539H147.166V37.7014ZM143.439 42.0771C143.572 41.9003 143.66 41.6793 143.726 41.392C143.792 41.1047 143.836 40.8174 143.88 40.4859C143.902 40.1544 143.924 39.8229 143.947 39.4694L144.013 38.3202H146.482V42.2539H143.263C143.329 42.2097 143.395 42.1434 143.439 42.0771Z" fill="#22376E"/>
<path d="M150.01 41.7898V37.7014H149.326V42.8506H149.944L153.383 38.7622V42.8506H154.067V37.7014H153.449L150.01 41.7898Z" fill="#22376E"/>
<path d="M157.837 37.7014C157.176 37.7014 156.647 37.8561 156.25 38.1434C155.853 38.4307 155.654 38.8727 155.654 39.4694C155.654 40.0218 155.831 40.4417 156.206 40.729C156.404 40.8837 156.625 40.9942 156.889 41.0605L155.61 42.8726H156.36L157.573 41.1489C157.639 41.1489 157.683 41.171 157.749 41.171H159.359V42.8726H159.998V37.7235H157.837V37.7014ZM156.36 39.4915C156.36 39.0716 156.492 38.7843 156.757 38.6075C157.021 38.4307 157.396 38.3423 157.859 38.3423H159.359V40.6627H157.793C156.845 40.6406 156.36 40.2428 156.36 39.4915Z" fill="#22376E"/>
<path d="M48.9836 36.6848C49.1821 36.3533 49.138 36.1323 48.8072 35.9555C48.1237 35.5798 47.4402 35.182 46.7788 34.8064C47.4402 33.613 48.7191 32.3533 48.5647 30.9611C47.2418 30.2981 45.6764 29.8119 44.2212 29.4141C45.3015 28.4197 45.5882 26.9611 45.1913 26.0329C43.5597 25.8341 41.884 26.0992 40.4288 26.6738C41.1344 25.3479 40.8478 23.3147 39.3926 22.6297C37.5405 22.0551 36.1955 24.5523 35.1813 25.7677C33.3292 27.8009 34.6301 30.4307 34.4537 32.7953C33.8584 27.16 27.6407 28.6407 32.3812 33.4141C33.4395 34.6296 31.6315 35.5798 31.0141 36.2207C30.8598 36.3754 30.8819 36.7069 30.6834 36.8174C28.9636 37.6351 27.3982 37.5246 25.2595 37.3257C24.7524 37.2373 23.209 37.1489 23.209 36.4417C26.6927 33.0384 29.4928 23.6904 29.4928 23.6904C29.6692 22.3866 30.6614 22.1877 30.6393 20.5302C33.6379 26.718 34.9388 22.1877 39.613 22.0109C40.2965 22.0109 42.1927 21.7678 42.4352 21.3479C42.6337 21.0164 41.0021 18.7402 40.517 18.2761C39.3264 17.1048 37.6728 16.707 36.0853 16.4419C42.347 15.8894 45.2133 12.5524 44.2432 6.1878C43.4495 5.61322 42.2809 6.1657 41.421 6.0552C39.7012 6.1215 38.2019 6.1878 36.8349 7.71265C36.4601 6.76238 32.9985 0.640879 31.9622 3.44749C29.8456 1.01657 28.6109 0.574581 26.5824 0C26.1635 0 25.8107 0.110496 25.5902 0.331489C25.3036 0.640879 23.7602 2.71821 23.4295 4.61875C22.7901 3.84527 20.9601 3.66848 19.9238 3.77898C18.645 3.93367 18.6891 5.59111 18.3804 6.49718C16.3078 5.65741 14.6322 6.25409 13.0667 6.96127C12.2289 7.44745 12.7139 8.39772 12.7801 9.1491C13.3092 13.0386 13.9487 13.7899 15.3377 15.4032C15.8448 15.9999 16.4622 16.7071 17.2118 17.7457C18.6229 20.3755 21.5113 20.5965 24.0027 20.4418C22.9665 20.9943 21.5113 21.0827 20.3427 21.3479C17.4985 21.5689 15.3598 23.4252 13.3754 25.3258C12.9565 25.7457 13.3533 26.2981 13.8384 26.3865C13.0226 26.6296 12.6698 27.1821 12.2289 28.1766C11.2808 25.9445 9.34052 24.3755 7.02544 24.4197C6.1435 24.3092 5.92302 25.0827 5.68048 25.9224C4.40167 25.8783 2.92443 26.2097 1.84405 26.6738C1.40308 26.8506 1.42513 27.3589 1.42513 27.7788C1.42513 29.4362 2.02044 31.0495 2.81418 32.5964C-4.66024 32.6185 4.84264 38.0991 7.31207 38.2096C8.54678 38.2538 9.84764 37.9445 10.8178 38.9389C11.3028 39.4914 12.0525 39.8008 12.5375 40.3533L13.0006 41.1709L13.64 41.7676C11.1926 42.74 8.54678 43.5135 8.06171 43.7787C8.06171 43.7787 6.827 44.1985 7.17978 44.3311C7.5546 44.4858 8.54678 44.4195 8.54678 44.4195C13.0006 42.9389 18.0497 40.9942 21.6877 37.9445C22.0404 37.7898 22.7019 37.9224 23.1208 38.0328C23.8484 38.4969 23.6279 38.8726 23.4736 39.6019C23.3192 41.7013 25.6564 42.3201 26.1635 44.066C26.7367 42.6958 26.3178 41.2372 25.6784 39.845C25.3036 38.9168 24.0909 39.2041 23.7823 38.1654C26.2958 38.74 28.8534 38.4969 31.3228 38.2317C32.2709 38.0991 32.8001 38.5411 33.6159 38.961C34.2332 39.3588 35.2695 39.4914 35.2034 40.4196C35.1152 42.0107 35.5341 43.403 36.4381 44.5079C37.0554 45.2593 38.0917 46.3643 39.128 45.9002C39.128 44.5742 38.7973 43.1599 38.4224 41.8118C40.2745 43.9555 43.0967 44.3532 45.6984 44.8173C47.1316 44.2648 45.985 42.3864 45.3015 41.5908C47.6828 41.4582 50.064 40.4196 47.0654 38.5411C47.9253 37.9665 48.5647 37.3478 48.9836 36.6848ZM27.4423 27.3589C26.9793 28.6628 26.5163 29.9887 25.7887 31.1379C25.6564 28.707 27.1336 25.834 25.4359 23.7567C25.9651 22.939 26.1635 21.9225 26.8911 21.2595C27.3982 21.9888 27.9274 23.1379 27.9274 23.4252C27.9274 23.4252 27.8833 26.055 27.4423 27.3589ZM29.6912 18.9391L29.5149 19.1601C27.9935 18.8065 27.6407 16.3093 27.0895 14.9833C25.1052 11.3811 26.6927 8.64081 28.236 6.011C28.4345 5.70161 28.5668 5.23753 28.9857 5.25963C34.608 7.99994 34.2112 15.1822 29.6912 18.9391ZM35.7105 22.5413C34.3655 23.6462 32.3812 23.0495 31.8079 21.4142C31.5433 20.7512 31.2346 19.9556 30.507 19.6463C30.1763 19.4695 31.1685 19.1159 31.2126 19.0275C32.9103 17.591 35.1813 20.044 37.0554 19.359C38.224 19.1822 38.7973 18.7402 40.5832 20.2429C38.665 19.3811 37.1216 21.4584 35.7105 22.5413ZM40.0981 21.4805C39.1941 21.6131 38.4004 21.4363 37.5405 21.591C38.5988 20.5302 40.2304 19.9556 41.3328 21.1711C41.2667 21.2595 40.8919 21.37 40.0981 21.4805ZM37.3421 17.3479C38.7972 17.6131 40.2745 18.1877 41.3769 20.486C40.0981 19.2485 39.0618 18.2982 37.7169 18.6297C37.0775 18.8728 34.7844 18.6518 32.0725 17.9667C33.5938 16.6408 35.3356 16.9722 37.3421 17.3479ZM37.1877 9.2375C36.9452 6.82867 39.5469 6.40879 42.7439 6.38669C43.8684 6.43089 43.8684 6.74028 43.8684 6.87287C44.0007 13.7678 41.1344 15.2927 34.2553 16.1325C35.3577 15.1822 35.931 14.8507 36.6586 13.348C37.5625 11.2485 37.3421 9.98887 37.1877 9.2375ZM32.6457 3.0718C32.8883 2.9834 33.219 3.1602 33.5718 3.58008C37.9815 8.83971 38.0697 13.2375 32.3812 16.8838C33.4836 15.2264 33.8804 12.8618 33.7702 11.4916C33.7702 9.50269 34.0789 7.44745 32.9985 5.65741C32.6898 4.83974 31.8299 3.69058 32.6457 3.0718ZM25.921 0.618779C26.2958 0.176793 27.1557 0.552481 27.5305 0.729275C30.9039 1.85634 33.2631 5.37012 33.2851 9.25959C31.9843 6.69608 31.0362 5.9668 30.2645 5.37012C29.8235 5.01653 29.4487 4.59665 28.7432 4.75134C27.773 5.06073 27.2439 7.18226 26.6265 7.91154C25.7005 6.60768 25.4138 6.1215 25.2816 5.85631C25.1272 5.45852 24.4878 4.83974 24.0468 5.01653C24.135 3.49168 24.7524 2.05523 25.921 0.618779ZM23.9586 5.63531C24.6201 5.23753 25.017 6.74028 25.4359 7.09387C27.0454 8.83971 25.0831 10.0552 25.5902 12.5303C24.9729 11.7126 24.0468 11.138 23.1649 10.8949C22.6798 10.7402 21.9963 10.5193 22.0184 10.2541C22.1066 8.72921 22.768 7.18226 23.9586 5.63531ZM19.13 5.9226C19.2403 5.50272 19.3505 5.10493 19.4387 4.70714C20.012 3.80107 23.0767 4.24306 23.231 5.61321C22.7239 7.02757 21.5995 8.66291 21.6436 10.2099C20.6293 9.32589 19.9458 11.5137 19.3505 13.6131C17.763 11.2264 18.4465 8.53032 19.13 5.9226ZM13.64 7.29276C14.9849 6.76238 16.5504 6.25409 18.0056 7.07177C18.4906 7.42536 17.6748 8.77341 17.763 9.41429C17.6087 10.5856 17.4984 11.5137 20.4309 17.4805C17.9394 16.6628 15.6023 14.2761 15.5141 11.5579C15.3157 10.1215 15.0511 8.33142 13.64 7.49165C13.5297 7.42535 13.5297 7.35906 13.64 7.29276ZM22.1727 19.9335C18.7552 19.9777 18.0717 17.3921 16.1094 15.3148C13.7723 13.5469 13.9046 10.5414 13.1549 7.99994C13.1329 7.88944 13.2211 7.86734 13.2872 7.88944C14.3676 8.57452 14.6542 10.0773 14.9629 11.5137C15.2275 15.801 19.9899 17.9225 23.1869 19.8672C22.8342 19.9114 22.4814 19.9335 22.1727 19.9335ZM22.8121 19.0275C19.6151 17.3037 19.108 13.569 21.0042 10.5414C21.2467 10.3646 21.401 10.4309 21.4451 10.453C22.1948 10.8949 22.0404 10.8949 23.3854 11.4916C24.8185 12.1325 26.869 14.7402 27.1777 16.7733C27.3321 18.8065 28.9636 18.8065 28.7432 20.5302C28.1919 20.486 27.773 20.3976 27.3762 20.3755C25.8328 19.9556 24.2232 19.9114 22.8121 19.0275ZM25.4359 20.6849C25.7225 20.5302 26.5163 20.6186 26.6045 20.707C25.921 21.4363 25.48 22.3424 24.9949 23.2042C24.3335 22.5413 23.6279 21.812 22.7901 21.3921C23.65 21.2153 24.5099 21.0164 25.4359 20.6849ZM14.8306 24.9059C17.2118 22.2319 19.7694 22.0772 22.7019 21.4363C23.2531 22.8064 23.0547 24.1545 23.1208 25.5689C20.4088 27.381 17.5646 24.8396 14.8306 24.9059ZM14.2353 25.6352C16.9031 24.7512 18.2481 26.7843 20.916 26.6517C18.7993 27.3147 15.8228 26.7401 14.2353 25.6352ZM3.85046 26.5854C4.64421 26.4086 6.0994 26.2097 5.65843 27.4694L3.51973 26.6296C3.62998 26.6296 3.74022 26.6075 3.85046 26.5854ZM2.02044 27.6462C2.19683 26.4086 4.6883 27.5357 5.63638 28.0882C6.1876 30.2318 7.00339 32.1323 8.08376 33.9003C8.21605 34.1434 9.36257 35.624 10.0902 36.4859C9.40667 36.1102 7.84123 35.2704 7.5987 35.182C3.93865 34.2981 2.19683 31.3589 2.02044 27.6462ZM0.565242 33.6351C0.609339 33.4804 0.895969 33.392 1.05031 33.3699C1.822 33.4141 2.81418 33.0384 3.54178 33.3478C3.78432 33.613 4.6883 34.5412 5.30566 34.9169C3.78432 34.7843 1.31489 35.3809 0.565242 33.6351ZM8.85546 37.6793C6.49627 37.7456 4.22528 36.9721 2.26297 35.4251C5.32771 35.2704 7.86328 35.6903 10.3327 37.613C10.2004 37.613 9.80354 37.6572 8.85546 37.6793ZM12.6919 34.2539C12.6037 35.0273 12.5375 35.5798 12.295 36.4417C11.4572 32.7511 11.2587 28.044 8.17196 25.834C10.7737 29.0163 10.9501 33.5467 12.3391 37.6793C9.27438 34.6738 4.7324 29.4362 6.8711 25.1269C11.5233 24.7512 12.9785 30.6296 12.6919 34.2539ZM13.0888 35.0494C13.4415 33.0605 13.199 31.5136 12.736 29.2594C12.5596 28.486 13.0888 27.4694 13.8605 27.0716C14.3235 27.5136 15.007 30.1213 14.6101 31.4473C14.2353 32.7069 13.64 33.8782 13.1329 35.0715C13.1108 35.0715 13.1108 35.0494 13.0888 35.0494ZM21.1144 37.1047C20.2104 37.8119 19.4387 38.4748 18.4465 39.0494C19.3946 38.0107 19.5931 36.729 20.497 35.7124C21.8199 34.3202 21.842 32.0439 20.9601 30.4528C20.4529 32.2207 18.8214 33.5467 19.2403 35.5135C19.4828 36.8395 18.1158 38.6074 17.6969 39.4693C16.9252 40.1544 16.4181 40.508 14.7203 41.2593L13.9046 40.5301L13.5518 39.7566C13.4636 39.5577 13.5297 39.2262 13.64 39.0052C14.0368 38.1433 13.7943 37.3036 13.5738 36.7511C13.0447 35.5798 14.0589 34.4307 14.566 33.4141C15.6684 31.3589 15.6023 28.9058 14.2353 26.5412C17.0795 27.7125 20.5632 27.9777 23.1869 26.2318C23.5177 28.0219 25.7005 29.0605 25.2154 31.0937C25.1934 31.823 24.9949 32.4638 24.5099 33.0163C23.6059 34.5854 22.5916 36.0218 21.1144 37.1047ZM43.6479 29.2152C41.4431 29.4141 39.3264 29.7898 37.5625 31.4252C37.4964 31.4915 37.298 31.6683 36.7026 32.287C38.8193 29.2373 41.6636 28.3092 44.7724 27.1158C44.7062 28.0219 44.3314 28.7291 43.6479 29.2152ZM40.6714 27.1379C41.862 26.5633 43.3172 26.4749 44.7283 26.497C42.5014 27.9556 39.7233 28.1324 37.783 30.3423C36.5483 31.4694 35.8648 32.95 34.8506 34.2318C35.953 31.4473 37.8271 28.3313 40.6714 27.1379ZM38.687 23.1821C38.7091 23.1821 38.7532 23.1821 38.7752 23.1821C38.4445 23.9998 37.4523 24.2208 36.7467 24.6186C37.5625 23.6683 38.2019 23.1821 38.687 23.1821ZM34.7624 28.0661C35.049 26.5854 35.8648 25.5468 37.2318 24.9501C38.0476 24.5523 38.9295 24.1766 39.2603 23.1821C41.4872 25.1048 39.5689 27.3589 37.5184 28.7512C36.416 29.9445 35.512 31.5799 35.027 32.4859C35.0931 30.8506 34.4758 29.6351 34.7624 28.0661ZM31.389 29.7456C33.7261 29.5909 34.2332 32.6406 33.8584 34.5412C33.7702 32.9942 32.5796 30.8727 31.3449 29.7456C31.3669 29.7456 31.389 29.7456 31.389 29.7456ZM32.3371 32.5522C31.7638 31.9997 31.1685 31.0053 31.1685 30.055C32.3371 31.2263 33.1308 32.6627 33.4395 34.2097C33.219 33.5688 32.8001 33.0384 32.3371 32.5522ZM34.5199 37.0826C31.3008 37.2815 35.4018 34.8506 35.9971 33.7456C38.8634 29.9003 43.5818 28.8396 47.9033 31.2263C47.9694 31.2705 48.0356 31.2926 48.1237 31.2926C45.963 37.5688 40.1643 38.0107 34.5199 37.0826ZM38.5106 44.9941C38.5327 45.1267 38.5547 45.2814 38.5768 45.414C36.0853 44.5079 35.5782 41.5908 35.7766 39.2483C38.0917 40.6406 38.2019 42.4969 38.5106 44.9941ZM45.3677 44.1764C42.5896 43.6461 39.7012 42.9168 38.0035 40.4859C39.9217 42.3864 43.251 42.5853 45.5441 44.1764C45.4779 44.1764 45.4118 44.1764 45.3677 44.1764ZM45.4779 42.6516C45.6543 42.9831 45.8969 43.7124 45.8087 43.8892C44.7724 42.6737 42.5234 42.4527 41.1785 41.8118C39.15 40.9058 37.2098 39.5577 35.512 38.1433C39.1059 38.8505 43.3172 39.4251 45.4779 42.6516ZM48.0355 40.1102L48.0576 40.1323C46.1835 41.5687 44.2212 40.8616 42.6337 39.5798C44.4637 39.6682 47.2198 37.9666 48.0355 40.1102ZM43.1187 38.9831C40.8698 39.0052 38.7752 38.1654 36.5924 37.7898C37.6066 37.8561 38.5768 38.0328 38.7752 38.077C38.7972 38.077 38.8193 38.077 38.8193 38.077C40.98 38.2317 41.399 37.9666 42.3911 37.6351C43.5156 37.392 45.4338 36.1323 46.3599 35.2041C47.1095 35.4914 47.793 36.0439 48.5206 36.4417C47.1536 38.0991 45.4779 38.9168 43.1187 38.9831Z" fill="#22376E"/>
</svg>
