<svg width="88" height="82" viewBox="0 0 88 82" fill="none" xmlns="http://www.w3.org/2000/svg">
<path d="M87.3308 65.1342C87.6846 64.5457 87.606 64.1533 87.0163 63.8394C85.7978 63.1723 84.5792 62.4661 83.3999 61.799C84.5792 59.6802 86.8591 57.4437 86.5839 54.9717C84.2254 53.7946 81.4344 52.9314 78.84 52.2251C80.7662 50.4594 81.2772 47.8697 80.5696 46.2218C77.6608 45.8686 74.6732 46.3395 72.0788 47.3596C73.3367 45.0054 72.8257 41.3955 70.2313 40.1792C66.9293 39.159 64.5315 43.5928 62.7232 45.7509C59.4213 49.3608 61.7405 54.03 61.426 58.2284C60.3647 48.2229 49.2795 50.8518 57.731 59.3271C59.6178 61.4851 56.3945 63.1723 55.2938 64.3102C55.0186 64.5849 55.0579 65.1735 54.7042 65.3696C51.638 66.8214 48.8471 66.6252 45.0341 66.2721C44.13 66.1152 41.3783 65.9582 41.3783 64.7026C47.5892 58.66 52.5815 42.0626 52.5815 42.0626C52.8959 39.7476 54.6648 39.3944 54.6255 36.4516C59.9716 47.4381 62.2908 39.3944 70.6244 39.0805C71.843 39.0805 75.2236 38.6489 75.656 37.9034C76.0098 37.3148 73.1009 33.2734 72.2361 32.4494C70.1134 30.3698 67.1652 29.6635 64.3349 29.1927C75.4987 28.2117 80.6089 22.2869 78.8793 10.9865C77.4642 9.96632 75.3808 10.9473 73.8478 10.7511C70.7816 10.8688 68.1086 10.9865 65.6714 13.6939C65.0032 12.0067 58.8316 1.13789 56.9841 6.12105C53.2104 1.80492 51.0091 1.02017 47.3926 0C46.6458 0 46.0168 0.196187 45.6237 0.588562C45.1127 1.13789 42.3611 4.82621 41.7714 8.20063C40.6315 6.82732 37.3688 6.51342 35.5213 6.70961C33.2413 6.98427 33.3199 9.92708 32.7696 11.5358C29.0745 10.0448 26.087 11.1042 23.2961 12.3598C21.8023 13.223 22.6671 14.9102 22.7851 16.2443C23.7285 23.1501 24.8685 24.4842 27.3449 27.3485C28.249 28.4079 29.3497 29.6635 30.6862 31.5077C33.202 36.177 38.3515 36.5693 42.7935 36.2947C40.9459 37.2756 38.3515 37.4326 36.2681 37.9034C31.1972 38.2958 27.3842 41.5917 23.8464 44.9662C23.0995 45.7117 23.8071 46.6926 24.6719 46.8496C23.2175 47.2812 22.5885 48.2621 21.8023 50.0278C20.112 46.0648 16.6528 43.2789 12.5254 43.3574C10.953 43.1612 10.5599 44.5345 10.1275 46.0256C7.84755 45.9471 5.21384 46.5357 3.28768 47.3596C2.5015 47.6735 2.54081 48.576 2.54081 49.3215C2.54081 52.2643 3.60216 55.1287 5.01729 57.8753C-8.30854 57.9145 8.63374 67.6454 13.0364 67.8416C15.2377 67.9201 17.5569 67.3708 19.2865 69.1364C20.1513 70.1174 21.4879 70.6667 22.3527 71.6476L23.1782 73.0994L24.3181 74.1588C19.9548 75.8853 15.2377 77.2586 14.3729 77.7295C14.3729 77.7295 12.1716 78.475 12.8005 78.7104C13.4688 78.9851 15.2377 78.8673 15.2377 78.8673C23.1782 76.2384 32.18 72.7855 38.666 67.3708C39.2949 67.0961 40.4742 67.3315 41.2211 67.5277C42.5183 68.3517 42.1252 69.0187 41.85 70.3136C41.5749 74.0411 45.7417 75.1398 46.6458 78.2395C47.6678 75.8068 46.9209 73.2171 45.781 70.7452C45.1127 69.0972 42.9507 69.6073 42.4004 67.7631C46.8816 68.7833 51.4415 68.3517 55.8441 67.8808C57.5344 67.6454 58.4778 68.4302 59.9323 69.1757C61.0329 69.882 62.8805 70.1174 62.7626 71.7654C62.6053 74.5905 63.3522 77.0624 64.9639 79.0243C66.0645 80.3584 67.9121 82.3202 69.7596 81.4963C69.7596 79.142 69.17 76.6308 68.5017 74.2373C71.8037 78.0434 76.8353 78.7496 81.4737 79.5736C84.0288 78.5927 81.9848 75.2575 80.7662 73.8449C85.0116 73.6095 89.257 71.7654 83.9109 68.4302C85.444 67.41 86.584 66.3113 87.3308 65.1342ZM48.9257 48.576C48.1002 50.891 47.2747 53.2453 45.9775 55.2856C45.7417 50.9695 48.3754 45.8686 45.3486 42.1803C46.292 40.7285 46.6458 38.9236 47.943 37.7465C48.8471 39.0413 49.7905 41.0816 49.7905 41.5917C49.7905 41.5917 49.7119 46.261 48.9257 48.576ZM52.9352 33.6265L52.6208 34.0189C49.9084 33.3911 49.2795 28.9573 48.2968 26.603C44.7589 20.2073 47.5892 15.3419 50.3408 10.6726C50.6946 10.1233 50.9305 9.29928 51.6773 9.33852C61.7012 14.204 60.9936 26.9562 52.9352 33.6265ZM63.6667 40.0222C61.2688 41.9841 57.731 40.9247 56.7089 38.0211C56.2372 36.844 55.6869 35.4314 54.3897 34.8821C53.8 34.5682 55.569 33.9404 55.6476 33.7835C58.6744 31.233 62.7232 35.5884 66.0645 34.372C68.1479 34.0581 69.17 33.2734 72.354 35.9415C68.9341 34.4113 66.1825 38.0996 63.6667 40.0222ZM71.4892 38.1388C69.8775 38.3743 68.4624 38.0604 66.9293 38.335C68.8162 36.4516 71.7251 35.4314 73.6905 37.5895C73.5726 37.7465 72.9043 37.9426 71.4892 38.1388ZM66.5755 30.8014C69.17 31.2723 71.8037 32.2924 73.7691 36.3731C71.4892 34.1758 69.6417 32.4886 67.2438 33.0772C66.1038 33.5088 62.0157 33.1164 57.1806 31.9001C59.893 29.5458 62.9984 30.1344 66.5755 30.8014ZM66.3004 16.4013C65.868 12.1244 70.5065 11.3789 76.2063 11.3396C78.2111 11.4181 78.2111 11.9674 78.2111 12.2029C78.4469 24.445 73.3367 27.1523 61.0723 28.6434C63.0377 26.9562 64.0598 26.3676 65.357 23.6994C66.9686 19.9719 66.5755 17.7353 66.3004 16.4013ZM58.2027 5.45401C58.6351 5.29706 59.2247 5.61096 59.8537 6.35647C67.7155 15.695 67.8727 23.5033 57.731 29.9774C59.6964 27.0346 60.404 22.8362 60.2075 20.4035C60.2075 16.8721 60.7578 13.223 58.8316 10.0448C58.2813 8.59301 56.7482 6.55266 58.2027 5.45401ZM46.2134 1.09865C46.8816 0.313898 48.4147 0.980935 49.0829 1.29484C55.0972 3.29595 59.3033 9.53471 59.3426 16.4405C57.0234 11.889 55.3331 10.5941 53.9573 9.53471C53.1711 8.90691 52.5028 8.1614 51.2449 8.43606C49.5153 8.98538 48.5719 12.7522 47.4713 14.047C45.8203 11.732 45.3092 10.8688 45.0734 10.3979C44.7982 9.69166 43.6583 8.59301 42.8721 8.90691C43.0293 6.19952 44.13 3.64908 46.2134 1.09865ZM42.7148 10.0056C43.8941 9.29928 44.6017 11.9674 45.3486 12.5952C48.2181 15.695 44.7196 17.8531 45.6237 22.2477C44.5231 20.7959 42.8721 19.7757 41.2997 19.3441C40.4349 19.0694 39.2163 18.677 39.2556 18.2062C39.4129 15.4988 40.5921 12.7522 42.7148 10.0056ZM34.1061 10.5156C34.3027 9.77013 34.4992 9.06386 34.6564 8.35758C35.6785 6.74885 41.1425 7.53359 41.4176 9.96632C40.5135 12.4775 38.5088 15.3811 38.5874 18.1277C36.7791 16.5582 35.5606 20.4427 34.4992 24.1703C31.6689 19.9326 32.8875 15.1457 34.1061 10.5156ZM24.3181 12.9484C26.716 12.0067 29.5069 11.1042 32.1013 12.556C32.9662 13.1838 31.5117 15.5773 31.6689 16.7152C31.3938 18.7948 31.1972 20.4427 36.4254 31.0368C31.9834 29.5851 27.8166 25.3474 27.6594 20.5212C27.3056 17.9708 26.8339 14.7925 24.3181 13.3015C24.1216 13.1838 24.1216 13.0661 24.3181 12.9484ZM39.5308 35.3922C33.4379 35.4707 32.2193 30.8799 28.7208 27.1916C24.554 24.0526 24.7898 18.7163 23.4533 14.204C23.414 14.0078 23.5712 13.9685 23.6892 14.0078C25.6153 15.2241 26.1263 17.8923 26.6767 20.4427C27.1484 28.0548 35.6392 31.8216 41.339 35.2745C40.7101 35.353 40.0811 35.3922 39.5308 35.3922ZM40.6708 33.7835C34.9709 30.7229 34.0668 24.0918 37.4474 18.7163C37.8798 18.4024 38.155 18.5201 38.2336 18.5593C39.5701 19.3441 39.2949 19.3441 41.6928 20.4035C44.2479 21.5414 47.9037 26.1714 48.454 29.7812C48.7292 33.3911 51.638 33.3911 51.2449 36.4516C50.2622 36.3731 49.5153 36.2162 48.8078 36.177C46.0561 35.4314 43.1866 35.353 40.6708 33.7835ZM45.3486 36.7263C45.8596 36.4516 47.2747 36.6086 47.4319 36.7655C46.2134 38.0604 45.4272 39.6691 44.5624 41.1994C43.3831 40.0222 42.1252 38.7274 40.6315 37.9819C42.1645 37.668 43.6976 37.3148 45.3486 36.7263ZM26.4408 44.2206C30.6862 39.4729 35.2461 39.1982 40.4742 38.0604C41.4569 40.4931 41.1032 42.8866 41.2211 45.3978C36.3861 48.6152 31.3152 44.1029 26.4408 44.2206ZM25.3795 45.5155C30.1359 43.946 32.5337 47.5558 37.2902 47.3204C33.5165 48.4975 28.2097 47.4774 25.3795 45.5155ZM6.86482 47.2027C8.27995 46.8888 10.8744 46.5357 10.0882 48.7722L6.27518 47.2812C6.47173 47.2812 6.66828 47.2419 6.86482 47.2027ZM3.60216 49.0861C3.91663 46.8888 8.35857 48.8899 10.0489 49.8708C11.0316 53.6769 12.486 57.0513 14.4122 60.1903C14.648 60.6219 16.6921 63.2508 17.9893 64.7811C16.7708 64.114 13.9798 62.623 13.5474 62.4661C7.02206 60.8966 3.91663 55.678 3.60216 49.0861ZM1.00775 59.7194C1.08636 59.4448 1.59738 59.2878 1.87255 59.2486C3.24837 59.3271 5.01729 58.66 6.31449 59.2094C6.74689 59.6802 8.35857 61.3282 9.45923 61.9952C6.74689 61.7598 2.34426 62.8192 1.00775 59.7194ZM15.788 66.8999C11.5819 67.0176 7.53308 65.6443 4.03456 62.8977C9.49854 62.623 14.0191 63.3685 18.4217 66.7822C18.1859 66.7822 17.4783 66.8607 15.788 66.8999ZM22.6278 60.8181C22.4706 62.1914 22.3527 63.1723 21.9203 64.7026C20.4265 58.1499 20.0727 49.7924 14.5694 45.8686C19.2079 51.5188 19.5224 59.5625 21.9989 66.8999C16.5349 61.5636 8.43719 52.2643 12.2502 44.613C20.5444 43.946 23.1388 54.3832 22.6278 60.8181ZM23.3354 62.2306C23.9643 58.6993 23.5319 55.9527 22.7064 51.9504C22.392 50.5771 23.3354 48.7722 24.7112 48.0659C25.5367 48.8507 26.7553 53.4807 26.0477 55.8349C25.3795 58.0715 24.3181 60.1511 23.414 62.2699C23.3747 62.2699 23.3747 62.2306 23.3354 62.2306ZM37.644 65.8797C36.0323 67.1353 34.6564 68.3125 32.8875 69.3326C34.5778 67.4885 34.9316 65.2127 36.5433 63.4078C38.9018 60.9358 38.9412 56.8944 37.3688 54.0693C36.4647 57.2083 33.5558 59.5625 34.3027 63.0546C34.7351 65.4089 32.2979 68.5479 31.551 70.0781C30.1752 71.2945 29.2711 71.9223 26.2443 73.2564L24.7898 71.9615L24.1609 70.5882C24.0036 70.2351 24.1216 69.6465 24.3181 69.2542C25.0257 67.7239 24.5933 66.2329 24.2002 65.2519C23.2568 63.1724 25.065 61.132 25.9691 59.3271C27.9346 55.678 27.8166 51.3226 25.3795 47.1242C30.4504 49.2038 36.6612 49.6747 41.339 46.5749C41.9287 49.7531 45.8203 51.5973 44.9555 55.2071C44.9162 56.502 44.5624 57.6399 43.6976 58.6208C42.0859 61.4067 40.2777 63.9571 37.644 65.8797ZM77.818 51.872C73.8871 52.2251 70.1134 52.8921 66.9686 55.7957C66.8507 55.9134 66.4969 56.2273 65.4356 57.326C69.2093 51.9112 74.2802 50.2632 79.8228 48.1444C79.7048 49.7531 79.0366 51.0087 77.818 51.872ZM72.5112 48.1836C74.6339 47.1635 77.2283 47.0065 79.7441 47.0457C75.7739 49.6354 70.8209 49.9493 67.3617 53.8731C65.1604 55.8742 63.9418 58.5031 62.1336 60.7789C64.0991 55.8349 67.4404 50.3025 72.5112 48.1836ZM68.9734 41.1601C69.0127 41.1601 69.0913 41.1601 69.1306 41.1601C68.541 42.6119 66.7721 43.0043 65.5142 43.7106C66.9686 42.0233 68.1086 41.1601 68.9734 41.1601ZM61.9764 49.8316C62.4874 47.2027 63.9418 45.3585 66.379 44.2991C67.8334 43.5928 69.4058 42.9258 69.9955 41.1601C73.9657 44.5738 70.5458 48.576 66.89 51.048C64.9246 53.1668 63.3129 56.0704 62.4481 57.6791C62.566 54.7755 61.4653 52.6175 61.9764 49.8316ZM55.9621 52.8137C60.1288 52.539 61.0329 57.9538 60.3647 61.3282C60.2075 58.5816 58.0848 54.8148 55.8834 52.8137C55.9227 52.8137 55.9621 52.8137 55.9621 52.8137ZM57.6524 57.7968C56.6303 56.8159 55.569 55.0502 55.569 53.363C57.6524 55.4426 59.0675 57.993 59.6178 60.7396C59.2247 59.6017 58.4778 58.66 57.6524 57.7968ZM61.544 65.8405C55.8048 66.1936 63.1163 61.8775 64.1777 59.9156C69.2879 53.0883 77.7001 51.2049 85.4047 55.4426C85.5226 55.521 85.6405 55.5603 85.7978 55.5603C81.9455 66.7037 71.6071 67.4885 61.544 65.8405ZM68.6589 79.8875C68.6982 80.1229 68.7376 80.3976 68.7769 80.633C64.3349 79.0243 63.4308 73.8449 63.7846 69.6858C67.9121 72.1577 68.1086 75.4537 68.6589 79.8875ZM80.8841 78.4357C75.9311 77.494 70.7816 76.1992 67.7548 71.8831C71.1747 75.2575 77.1104 75.6106 81.1986 78.4357C81.0807 78.4357 80.9627 78.4357 80.8841 78.4357ZM81.0807 75.7283C81.3951 76.3169 81.8275 77.6117 81.6703 77.9256C79.8228 75.7676 75.8132 75.3752 73.4154 74.2373C69.7989 72.6286 66.3397 70.2351 63.3129 67.7239C69.7203 68.9795 77.2283 69.9997 81.0807 75.7283ZM85.6405 71.216L85.6798 71.2553C82.3385 73.8057 78.84 72.5501 76.0098 70.2743C79.2724 70.4313 84.1861 67.41 85.6405 71.216ZM76.8746 69.2149C72.865 69.2542 69.1306 67.7631 65.239 67.0961C67.0473 67.2138 68.7769 67.5277 69.1306 67.6062C69.17 67.6062 69.2093 67.6062 69.2093 67.6062C73.0616 67.8809 73.8084 67.41 75.5774 66.8214C77.5821 66.3898 81.002 64.1533 82.653 62.5053C83.9895 63.0154 85.2081 63.9963 86.5053 64.7026C84.0682 67.6454 81.0807 69.0972 76.8746 69.2149Z" fill="#ECD6AE"/>
</svg>
